<svg width="100" height="100" viewBox="0 0 100 100" fill="none" xmlns="http://www.w3.org/2000/svg">
  <rect width="100" height="100" rx="24" fill="#0c0c0c"/>
  <circle cx="50" cy="40" r="25" stroke="white" stroke-width="2.2" fill="none"/>
  <ellipse cx="50" cy="40" rx="25" ry="9.5" stroke="white" stroke-width="1.1" fill="none" opacity="0.45"/>
  <line x1="25" y1="40" x2="75" y2="40" stroke="white" stroke-width="1.1" opacity="0.45"/>
  <path d="M50 15 Q57 27 57 40 Q57 53 50 65" stroke="white" stroke-width="1.1" fill="none" opacity="0.45"/>
  <path d="M50 15 Q43 27 43 40 Q43 53 50 65" stroke="white" stroke-width="1.1" fill="none" opacity="0.45"/>
  <line x1="50" y1="15" x2="50" y2="65" stroke="white" stroke-width="0.7" opacity="0.25"/>
  <path d="M50 62 Q37 60 26 64 L26 78 Q37 74 50 76 Z" fill="white" opacity="0.92"/>
  <path d="M50 62 Q63 60 74 64 L74 78 Q63 74 50 76 Z" fill="white" opacity="0.92"/>
  <line x1="50" y1="62" x2="50" y2="76" stroke="#0c0c0c" stroke-width="1.8"/>
  <line x1="29" y1="69" x2="44" y2="67" stroke="#0c0c0c" stroke-width="0.9" stroke-linecap="round" opacity="0.35"/>
  <line x1="29" y1="73" x2="43" y2="71" stroke="#0c0c0c" stroke-width="0.9" stroke-linecap="round" opacity="0.35"/>
  <line x1="56" y1="67" x2="71" y2="69" stroke="#0c0c0c" stroke-width="0.9" stroke-linecap="round" opacity="0.35"/>
  <line x1="57" y1="71" x2="71" y2="73" stroke="#0c0c0c" stroke-width="0.9" stroke-linecap="round" opacity="0.35"/>
</svg>
